<mxfile host="app.diagrams.net" modified="2024-02-11T02:27:28.202Z" agent="Mozilla/5.0 (Windows NT 10.0; Win64; x64; rv:122.0) Gecko/20100101 Firefox/122.0" etag="fM1awXoJDwHssa3ixjrk" version="23.1.2" type="github">
  <diagram name="Page-1" id="mVeZRTmeUI3flCCYSnTN">
    <mxGraphModel dx="2074" dy="1142" grid="1" gridSize="10" guides="1" tooltips="1" connect="1" arrows="1" fold="1" page="1" pageScale="1" pageWidth="850" pageHeight="1100" math="0" shadow="0">
      <root>
        <mxCell id="0" />
        <mxCell id="1" parent="0" />
        <mxCell id="lwa5SYytGdMVmCVAO-wV-17" style="edgeStyle=orthogonalEdgeStyle;rounded=0;orthogonalLoop=1;jettySize=auto;html=1;exitX=0.5;exitY=1;exitDx=0;exitDy=0;exitPerimeter=0;" edge="1" parent="1" source="lwa5SYytGdMVmCVAO-wV-1" target="lwa5SYytGdMVmCVAO-wV-13">
          <mxGeometry relative="1" as="geometry" />
        </mxCell>
        <mxCell id="lwa5SYytGdMVmCVAO-wV-1" value="&lt;div align=&quot;right&quot;&gt;Server&lt;/div&gt;" style="fontColor=#0066CC;verticalAlign=top;verticalLabelPosition=bottom;labelPosition=center;align=right;html=1;outlineConnect=0;fillColor=#CCCCCC;strokeColor=#6881B3;gradientColor=none;gradientDirection=north;strokeWidth=2;shape=mxgraph.networks.server;" vertex="1" parent="1">
          <mxGeometry x="450" y="550" width="90" height="100" as="geometry" />
        </mxCell>
        <mxCell id="lwa5SYytGdMVmCVAO-wV-2" value="&lt;div&gt;Legacy Server&lt;/div&gt;&lt;div&gt;&lt;br&gt;&lt;/div&gt;" style="fontColor=#0066CC;verticalAlign=top;verticalLabelPosition=bottom;labelPosition=center;align=center;html=1;outlineConnect=0;fillColor=#CCCCCC;strokeColor=#6881B3;gradientColor=none;gradientDirection=north;strokeWidth=2;shape=mxgraph.networks.server;" vertex="1" parent="1">
          <mxGeometry x="130" y="550" width="90" height="100" as="geometry" />
        </mxCell>
        <mxCell id="lwa5SYytGdMVmCVAO-wV-3" value="&lt;div&gt;Switch&lt;/div&gt;&lt;div&gt;&lt;br&gt;&lt;/div&gt;" style="fontColor=#0066CC;verticalAlign=top;verticalLabelPosition=bottom;labelPosition=center;align=center;html=1;outlineConnect=0;fillColor=#CCCCCC;strokeColor=#6881B3;gradientColor=none;gradientDirection=north;strokeWidth=2;shape=mxgraph.networks.switch;" vertex="1" parent="1">
          <mxGeometry x="375" y="460" width="100" height="30" as="geometry" />
        </mxCell>
        <mxCell id="lwa5SYytGdMVmCVAO-wV-6" style="edgeStyle=orthogonalEdgeStyle;rounded=0;orthogonalLoop=1;jettySize=auto;html=1;exitX=1;exitY=0.5;exitDx=0;exitDy=0;exitPerimeter=0;entryX=0.5;entryY=0;entryDx=0;entryDy=0;entryPerimeter=0;" edge="1" parent="1" source="lwa5SYytGdMVmCVAO-wV-3" target="lwa5SYytGdMVmCVAO-wV-1">
          <mxGeometry relative="1" as="geometry" />
        </mxCell>
        <mxCell id="lwa5SYytGdMVmCVAO-wV-7" style="edgeStyle=orthogonalEdgeStyle;rounded=0;orthogonalLoop=1;jettySize=auto;html=1;exitX=0;exitY=0.5;exitDx=0;exitDy=0;exitPerimeter=0;entryX=0.5;entryY=0;entryDx=0;entryDy=0;entryPerimeter=0;" edge="1" parent="1" source="lwa5SYytGdMVmCVAO-wV-3" target="lwa5SYytGdMVmCVAO-wV-2">
          <mxGeometry relative="1" as="geometry" />
        </mxCell>
        <mxCell id="lwa5SYytGdMVmCVAO-wV-9" value="" style="edgeStyle=orthogonalEdgeStyle;rounded=0;orthogonalLoop=1;jettySize=auto;html=1;" edge="1" parent="1" source="lwa5SYytGdMVmCVAO-wV-8" target="lwa5SYytGdMVmCVAO-wV-3">
          <mxGeometry relative="1" as="geometry" />
        </mxCell>
        <mxCell id="lwa5SYytGdMVmCVAO-wV-8" value="&lt;div align=&quot;left&quot;&gt;Router&lt;/div&gt;" style="fontColor=#0066CC;verticalAlign=top;verticalLabelPosition=bottom;labelPosition=center;align=left;html=1;outlineConnect=0;fillColor=#CCCCCC;strokeColor=#6881B3;gradientColor=none;gradientDirection=north;strokeWidth=2;shape=mxgraph.networks.router;" vertex="1" parent="1">
          <mxGeometry x="375" y="340" width="100" height="30" as="geometry" />
        </mxCell>
        <mxCell id="lwa5SYytGdMVmCVAO-wV-10" value="" style="fontColor=#0066CC;verticalAlign=top;verticalLabelPosition=bottom;labelPosition=center;align=center;html=1;outlineConnect=0;fillColor=#CCCCCC;strokeColor=#6881B3;gradientColor=none;gradientDirection=north;strokeWidth=2;shape=mxgraph.networks.virtual_server;" vertex="1" parent="1">
          <mxGeometry x="340" y="720" width="70" height="80" as="geometry" />
        </mxCell>
        <mxCell id="lwa5SYytGdMVmCVAO-wV-11" value="" style="fontColor=#0066CC;verticalAlign=top;verticalLabelPosition=bottom;labelPosition=center;align=center;html=1;outlineConnect=0;fillColor=#CCCCCC;strokeColor=#6881B3;gradientColor=none;gradientDirection=north;strokeWidth=2;shape=mxgraph.networks.virtual_server;" vertex="1" parent="1">
          <mxGeometry x="420" y="720" width="70" height="80" as="geometry" />
        </mxCell>
        <mxCell id="lwa5SYytGdMVmCVAO-wV-12" value="" style="fontColor=#0066CC;verticalAlign=top;verticalLabelPosition=bottom;labelPosition=center;align=center;html=1;outlineConnect=0;fillColor=#CCCCCC;strokeColor=#6881B3;gradientColor=none;gradientDirection=north;strokeWidth=2;shape=mxgraph.networks.virtual_server;" vertex="1" parent="1">
          <mxGeometry x="500" y="720" width="70" height="80" as="geometry" />
        </mxCell>
        <mxCell id="lwa5SYytGdMVmCVAO-wV-13" value="" style="fontColor=#0066CC;verticalAlign=top;verticalLabelPosition=bottom;labelPosition=center;align=center;html=1;outlineConnect=0;fillColor=#CCCCCC;strokeColor=#6881B3;gradientColor=none;gradientDirection=north;strokeWidth=2;shape=mxgraph.networks.virtual_server;" vertex="1" parent="1">
          <mxGeometry x="580" y="720" width="70" height="80" as="geometry" />
        </mxCell>
        <mxCell id="lwa5SYytGdMVmCVAO-wV-14" style="edgeStyle=orthogonalEdgeStyle;rounded=0;orthogonalLoop=1;jettySize=auto;html=1;exitX=0.5;exitY=1;exitDx=0;exitDy=0;exitPerimeter=0;entryX=0.5;entryY=0;entryDx=0;entryDy=0;entryPerimeter=0;" edge="1" parent="1" source="lwa5SYytGdMVmCVAO-wV-1" target="lwa5SYytGdMVmCVAO-wV-10">
          <mxGeometry relative="1" as="geometry" />
        </mxCell>
        <mxCell id="lwa5SYytGdMVmCVAO-wV-15" style="edgeStyle=orthogonalEdgeStyle;rounded=0;orthogonalLoop=1;jettySize=auto;html=1;exitX=0.5;exitY=1;exitDx=0;exitDy=0;exitPerimeter=0;entryX=0.5;entryY=0;entryDx=0;entryDy=0;entryPerimeter=0;" edge="1" parent="1" source="lwa5SYytGdMVmCVAO-wV-1" target="lwa5SYytGdMVmCVAO-wV-11">
          <mxGeometry relative="1" as="geometry" />
        </mxCell>
        <mxCell id="lwa5SYytGdMVmCVAO-wV-16" style="edgeStyle=orthogonalEdgeStyle;rounded=0;orthogonalLoop=1;jettySize=auto;html=1;exitX=0.5;exitY=1;exitDx=0;exitDy=0;exitPerimeter=0;entryX=0.5;entryY=0;entryDx=0;entryDy=0;entryPerimeter=0;" edge="1" parent="1" source="lwa5SYytGdMVmCVAO-wV-1" target="lwa5SYytGdMVmCVAO-wV-12">
          <mxGeometry relative="1" as="geometry" />
        </mxCell>
      </root>
    </mxGraphModel>
  </diagram>
</mxfile>
